<?xml version="1.0" encoding="UTF-8"?>
<svg id="_图层_1" data-name="图层_1" xmlns="http://www.w3.org/2000/svg" baseProfile="tiny" version="1.2" viewBox="0 0 1923.522 455.893">
  <!-- Generator: Adobe Illustrator 29.3.0, SVG Export Plug-In . SVG Version: 2.1.0 Build 146)  -->
  <text transform="translate(309.836 196.059) scale(.986 1)" fill="#fff" font-family="Lack-Regular, Lack" font-size="198.567" letter-spacing=".025em"><tspan x="0" y="0">eak Consulting</tspan></text>
  <path d="M297.705,72.983c-6.307-6.531-13.683-8.807-16.822-9.792-26.922-8.454-79.956-28.089-151.434-55.142-1.5-.205-14.788-1.781-24.883,8.512-10.612,10.819-8.303,25.177-8.071,26.476v188.361c-.12,1.848-.792,15.786,9.79,25.516,7.373,6.779,18.538,9.978,26.714,7.305.026-.009.047-.015.052-.017,15.108-5.029,85.458-22.132,143.7-46.902,12.051-5.125,16.057-7.377,20.063-11.646,10.741-11.447,8.838-23.919,9.333-69.333.427-39.19,2.091-52.428-8.444-63.336ZM292.327,197.691c-3.133,1.787-16.839,12.113-46.799,12.113-43.666.596-74.018-31.971-73.43-70.495-.588-38.525,29.763-71.092,73.43-70.496,21.931,0,36.226,7.15,43.079,11.915v22.837c-1.175-1.987-19.777-14.497-43.079-14.497-32.309,0-51.304,22.042-51.304,50.241,0,28.397,18.994,50.041,51.304,50.041,17.428,0,35.442-5.163,46.799-14.893v23.234Z" fill="#fff"/>
  <text transform="translate(561.119 415.237) scale(.986 1)" fill="#fff" font-family="SJsuqian-Regular, SJsuqian" font-size="200" letter-spacing=".025em" stroke="#fff" stroke-miterlimit="10" stroke-width="5"><tspan x="0" y="0">思客咨询</tspan></text>
</svg>